<svg xmlns="http://www.w3.org/2000/svg" xmlns:xlink="http://www.w3.org/1999/xlink" width="143" height="163" viewBox="0 0 143 163">
  <defs>
    <filter id="矩形_28" x="0" y="0" width="39" height="163" filterUnits="userSpaceOnUse">
      <feOffset dy="3" input="SourceAlpha"/>
      <feGaussianBlur stdDeviation="3" result="blur"/>
      <feFlood flood-opacity="0.161"/>
      <feComposite operator="in" in2="blur"/>
      <feComposite in="SourceGraphic"/>
    </filter>
    <filter id="矩形_29" x="35" y="22" width="39" height="104" filterUnits="userSpaceOnUse">
      <feOffset dy="3" input="SourceAlpha"/>
      <feGaussianBlur stdDeviation="3" result="blur-2"/>
      <feFlood flood-opacity="0.161"/>
      <feComposite operator="in" in2="blur-2"/>
      <feComposite in="SourceGraphic"/>
    </filter>
    <filter id="矩形_31" x="104" y="22" width="39" height="104" filterUnits="userSpaceOnUse">
      <feOffset dy="3" input="SourceAlpha"/>
      <feGaussianBlur stdDeviation="3" result="blur-3"/>
      <feFlood flood-opacity="0.161"/>
      <feComposite operator="in" in2="blur-3"/>
      <feComposite in="SourceGraphic"/>
    </filter>
    <filter id="矩形_30" x="69" y="45" width="39" height="60" filterUnits="userSpaceOnUse">
      <feOffset dy="3" input="SourceAlpha"/>
      <feGaussianBlur stdDeviation="3" result="blur-4"/>
      <feFlood flood-opacity="0.161"/>
      <feComposite operator="in" in2="blur-4"/>
      <feComposite in="SourceGraphic"/>
    </filter>
  </defs>
  <g id="组_2379" data-name="组 2379" transform="translate(-222 -222)">
    <g transform="matrix(1, 0, 0, 1, 222, 222)" filter="url(#矩形_28)">
      <rect id="矩形_28-2" data-name="矩形 28" width="21" height="145" rx="10.5" transform="translate(9 6)" fill="#f4f6f6"/>
    </g>
    <g transform="matrix(1, 0, 0, 1, 222, 222)" filter="url(#矩形_29)">
      <rect id="矩形_29-2" data-name="矩形 29" width="21" height="86" rx="10.5" transform="translate(44 28)" fill="#f4f6f6"/>
    </g>
    <g transform="matrix(1, 0, 0, 1, 222, 222)" filter="url(#矩形_31)">
      <rect id="矩形_31-2" data-name="矩形 31" width="21" height="86" rx="10.5" transform="translate(113 28)" fill="#f4f6f6"/>
    </g>
    <g transform="matrix(1, 0, 0, 1, 222, 222)" filter="url(#矩形_30)">
      <rect id="矩形_30-2" data-name="矩形 30" width="21" height="42" rx="10" transform="translate(78 51)" fill="#f4f6f6"/>
    </g>
  </g>
</svg>
